<svg width="1142" height="1729" viewBox="0 0 1142 1729" fill="#fff" xmlns="http://www.w3.org/2000/svg">
<path d="M318 1C735 712 459 1279 400 1431C341 1583 472 1809 761 1699C1050 1589 1103 1364 972 1135C841 906 719 862 569 886C419 910 307 1429 125 1221C-57 1013 -56 639 251 585C558 531 268 -7 730 109C1192 225 1235 1063 1005 853C775 643 821 632 884 536C947 440 828 259 662 408C496 557 540 728 678 783C816 838 910 1140 662 1188C414 1236 278 1015 351 886C424 757 514 673 416 565C318 457 -106 411 258 290" stroke="black"/>
</svg>
