<svg width="1028" height="556" viewBox="0 0 1028 556" fill="none" xmlns="http://www.w3.org/2000/svg">
<mask id="mask0_101_659" style="mask-type:alpha" maskUnits="userSpaceOnUse" x="0" y="0" width="1028" height="556">
<rect width="1028" height="556" rx="22" fill="#132B2B"/>
</mask>
<g mask="url(#mask0_101_659)">
<path d="M873.501 282.702C876.125 282.702 878.252 280.597 878.252 278C878.252 275.403 876.125 273.298 873.501 273.298C870.877 273.298 868.75 275.403 868.75 278C868.75 280.597 870.877 282.702 873.501 282.702Z" fill="#61DAFB"/>
<path d="M873.501 287.633C887.58 287.633 898.994 283.32 898.994 278C898.994 272.68 887.58 268.367 873.501 268.367C859.421 268.367 848.008 272.68 848.008 278C848.008 283.32 859.421 287.633 873.501 287.633Z" stroke="#61DAFB" stroke-width="5"/>
<path d="M865.071 282.817C872.111 294.884 881.591 302.51 886.247 299.85C890.903 297.19 888.97 285.251 881.93 273.183C874.89 261.116 865.41 253.49 860.754 256.15C856.098 258.81 858.031 270.749 865.071 282.817Z" stroke="#61DAFB" stroke-width="5"/>
<path d="M865.072 273.183C858.032 285.251 856.1 297.19 860.755 299.85C865.411 302.51 874.892 294.884 881.931 282.817C888.971 270.749 890.904 258.81 886.248 256.15C881.593 253.49 872.112 261.116 865.072 273.183Z" stroke="#61DAFB" stroke-width="5"/>
<path fill-rule="evenodd" clip-rule="evenodd" d="M873.499 429.155C888.38 429.155 900.444 423.041 900.444 415.5C900.444 407.959 888.38 401.845 873.499 401.845C858.618 401.845 846.555 407.959 846.555 415.5C846.555 423.041 858.618 429.155 873.499 429.155Z" fill="#6E81B6"/>
<path fill-rule="evenodd" clip-rule="evenodd" d="M878.96 419.913L880.297 413.035C880.598 411.482 880.348 410.324 879.552 409.592C878.78 408.884 877.471 408.54 875.55 408.54H873.235L873.897 405.132C873.909 405.068 873.908 405.003 873.892 404.94C873.876 404.878 873.846 404.819 873.805 404.769C873.764 404.72 873.713 404.679 873.654 404.652C873.596 404.624 873.532 404.61 873.467 404.61H870.273C870.063 404.61 869.883 404.759 869.843 404.965L868.423 412.267C868.294 411.446 867.976 410.739 867.467 410.156C866.53 409.084 865.048 408.54 863.061 408.54H856.87C856.66 408.54 856.48 408.689 856.439 408.894L853.567 423.676C853.542 423.805 853.575 423.937 853.659 424.038C853.742 424.139 853.866 424.198 853.997 424.198H857.217C857.426 424.198 857.607 424.049 857.647 423.843L858.342 420.267H860.738C861.996 420.267 863.053 420.131 863.878 419.863C864.721 419.588 865.498 419.123 866.182 418.483C866.735 417.975 867.192 417.406 867.543 416.792L866.97 419.745C866.944 419.874 866.978 420.007 867.061 420.107C867.145 420.209 867.269 420.267 867.4 420.267H870.594C870.804 420.267 870.984 420.118 871.024 419.913L872.601 411.799H874.793C875.727 411.799 876.001 411.985 876.076 412.065C876.143 412.138 876.283 412.395 876.126 413.205L874.855 419.745C874.843 419.808 874.845 419.874 874.861 419.936C874.877 419.999 874.906 420.057 874.947 420.107C874.988 420.157 875.04 420.197 875.098 420.225C875.157 420.252 875.22 420.267 875.285 420.267H878.531C878.632 420.267 878.731 420.232 878.809 420.167C878.887 420.103 878.941 420.013 878.96 419.913ZM864.149 414.23C863.949 415.261 863.571 415.996 863.025 416.416C862.471 416.843 861.585 417.059 860.392 417.059H858.965L859.997 411.749H861.842C863.197 411.749 863.743 412.039 863.963 412.281C864.267 412.618 864.331 413.292 864.149 414.23ZM892.417 410.156C891.48 409.084 889.998 408.54 888.011 408.54H881.82C881.61 408.54 881.43 408.689 881.39 408.894L878.517 423.676C878.492 423.805 878.525 423.937 878.609 424.038C878.692 424.139 878.816 424.198 878.947 424.198H882.167C882.377 424.198 882.557 424.049 882.597 423.843L883.292 420.267H885.689C886.947 420.267 888.003 420.131 888.828 419.863C889.672 419.588 890.448 419.123 891.132 418.483C891.703 417.958 892.173 417.369 892.528 416.733C892.884 416.096 893.139 415.387 893.288 414.623C893.654 412.739 893.361 411.237 892.417 410.156ZM889.282 414.23C889.081 415.261 888.703 415.996 888.158 416.416C887.604 416.843 886.718 417.059 885.525 417.059H884.098L885.129 411.749H886.975C888.33 411.749 888.876 412.039 889.096 412.281C889.399 412.618 889.464 413.292 889.282 414.23Z" fill="white"/>
<path fill-rule="evenodd" clip-rule="evenodd" d="M861.75 411.311C862.973 411.311 863.788 411.537 864.196 411.988C864.603 412.44 864.7 413.215 864.487 414.314C864.264 415.458 863.836 416.274 863.2 416.763C862.565 417.253 861.598 417.497 860.3 417.497H858.341L859.543 411.311H861.75ZM853.904 423.76H857.124L857.888 419.83H860.646C861.863 419.83 862.864 419.702 863.65 419.446C864.436 419.19 865.151 418.762 865.793 418.16C866.333 417.665 866.77 417.117 867.104 416.519C867.438 415.921 867.675 415.261 867.815 414.539C868.156 412.787 867.899 411.422 867.045 410.445C866.191 409.467 864.832 408.978 862.969 408.978H856.777L853.904 423.76ZM870.18 405.048H873.375L872.611 408.978H875.458C877.248 408.978 878.483 409.29 879.163 409.915C879.843 410.54 880.046 411.552 879.775 412.951L878.438 419.83H875.193L876.463 413.29C876.608 412.545 876.555 412.038 876.304 411.767C876.052 411.497 875.518 411.361 874.701 411.361H872.148L870.502 419.83H867.307L870.18 405.048ZM886.883 411.311C888.106 411.311 888.921 411.537 889.329 411.988C889.736 412.44 889.833 413.215 889.62 414.314C889.398 415.458 888.969 416.274 888.333 416.763C887.698 417.253 886.731 417.497 885.433 417.497H883.475L884.677 411.311H886.883ZM879.037 423.76H882.257L883.02 419.83H885.778C886.996 419.83 887.997 419.702 888.783 419.446C889.569 419.19 890.283 418.762 890.926 418.16C891.466 417.665 891.902 417.117 892.236 416.519C892.57 415.921 892.808 415.261 892.948 414.539C893.289 412.787 893.032 411.422 892.178 410.445C891.323 409.467 889.965 408.978 888.102 408.978H881.91L879.037 423.76Z" fill="black"/>
<path d="M848.304 530.271C848.052 530.268 847.802 530.32 847.572 530.423C847.342 530.527 847.138 530.679 846.973 530.87C846.809 531.061 846.688 531.286 846.62 531.528C846.551 531.771 846.537 532.026 846.577 532.274L853.907 576.769C853.998 577.313 854.278 577.808 854.698 578.167C855.118 578.525 855.651 578.724 856.203 578.729H891.365C891.779 578.734 892.181 578.59 892.498 578.324C892.815 578.058 893.025 577.687 893.092 577.278L900.421 532.283C900.462 532.034 900.447 531.78 900.379 531.537C900.31 531.295 900.189 531.07 900.025 530.879C899.86 530.688 899.656 530.536 899.426 530.432C899.196 530.329 898.947 530.277 898.695 530.28L848.304 530.271ZM879.167 562.429H867.944L864.905 546.553H881.886L879.167 562.429Z" fill="#2684FF"/>
<path d="M898.045 546.531H881.854L879.137 562.394H867.923L854.682 578.111C855.101 578.474 855.636 578.676 856.191 578.68H891.334C891.748 578.686 892.149 578.542 892.466 578.276C892.783 578.01 892.993 577.639 893.059 577.231L898.045 546.531Z" fill="url(#paint0_linear_101_659)"/>
<path d="M892.957 142.526C891.077 142.535 889.443 142.988 888.075 143.658C887.573 142.663 887.071 141.777 886.983 141.128C886.884 140.37 886.766 139.907 886.884 139.002C887.002 138.096 887.534 136.807 887.524 136.708C887.514 136.61 887.406 136.147 886.323 136.137C885.24 136.128 884.305 136.344 884.197 136.63C884.089 136.915 883.882 137.565 883.744 138.234C883.557 139.218 881.579 142.732 880.447 144.573C880.083 143.854 879.768 143.224 879.699 142.722C879.6 141.965 879.482 141.502 879.6 140.596C879.718 139.691 880.25 138.401 880.24 138.303C880.23 138.204 880.122 137.742 879.039 137.732C877.956 137.722 877.021 137.939 876.913 138.224C876.805 138.51 876.687 139.179 876.46 139.829C876.234 140.478 873.606 146.345 872.917 147.86C872.563 148.638 872.257 149.258 872.041 149.681C872.041 149.681 872.031 149.711 872.001 149.76C871.814 150.124 871.706 150.321 871.706 150.321C871.706 150.321 871.706 150.321 871.706 150.331C871.559 150.597 871.401 150.843 871.322 150.843C871.263 150.843 871.155 150.134 871.342 149.17C871.736 147.132 872.671 143.963 872.661 143.854C872.661 143.795 872.838 143.244 872.051 142.959C871.283 142.673 871.007 143.146 870.938 143.146C870.87 143.146 870.82 143.313 870.82 143.313C870.82 143.313 871.677 139.75 869.186 139.75C867.631 139.75 865.485 141.453 864.422 142.988C863.753 143.352 862.326 144.13 860.8 144.967C860.219 145.291 859.619 145.616 859.058 145.921C859.019 145.882 858.979 145.833 858.94 145.793C855.928 142.575 850.357 140.301 850.593 135.98C850.681 134.405 851.223 130.271 861.292 125.251C869.58 121.166 876.175 122.298 877.317 124.808C878.951 128.391 873.783 135.045 865.22 136.009C861.952 136.374 860.239 135.114 859.806 134.641C859.353 134.149 859.284 134.12 859.117 134.218C858.841 134.366 859.019 134.809 859.117 135.065C859.373 135.734 860.426 136.915 862.208 137.496C863.783 138.008 867.611 138.293 872.248 136.502C877.435 134.494 881.49 128.913 880.299 124.237C879.108 119.493 871.234 117.928 863.783 120.576C859.353 122.151 854.55 124.631 851.095 127.859C846.99 131.698 846.341 135.035 846.606 136.433C847.561 141.394 854.402 144.622 857.139 147.014C857.001 147.093 856.873 147.162 856.764 147.221C855.396 147.9 850.179 150.626 848.88 153.51C847.404 156.778 849.116 159.121 850.248 159.436C853.762 160.41 857.375 158.658 859.314 155.764C861.253 152.871 861.017 149.111 860.121 147.388C860.111 147.368 860.101 147.349 860.082 147.329C860.436 147.122 860.8 146.906 861.154 146.699C861.853 146.286 862.542 145.902 863.133 145.587C862.798 146.502 862.552 147.595 862.434 149.17C862.286 151.02 863.044 153.422 864.038 154.367C864.481 154.78 865.003 154.79 865.338 154.79C866.499 154.79 867.021 153.825 867.602 152.684C868.31 151.286 868.95 149.662 868.95 149.662C868.95 149.662 868.153 154.052 870.318 154.052C871.106 154.052 871.903 153.028 872.257 152.506C872.257 152.516 872.257 152.516 872.257 152.516C872.257 152.516 872.277 152.487 872.316 152.418C872.395 152.29 872.444 152.211 872.444 152.211C872.444 152.211 872.444 152.201 872.444 152.191C872.759 151.64 873.468 150.39 874.521 148.313C875.88 145.636 877.189 142.289 877.189 142.289C877.189 142.289 877.307 143.106 877.71 144.465C877.947 145.262 878.439 146.138 878.833 146.984C878.518 147.427 878.321 147.673 878.321 147.673C878.321 147.673 878.321 147.673 878.331 147.683C878.075 148.018 877.799 148.382 877.494 148.737C876.421 150.016 875.141 151.483 874.964 151.906C874.758 152.408 874.807 152.772 875.2 153.067C875.486 153.284 875.998 153.314 876.519 153.284C877.484 153.215 878.163 152.979 878.498 152.831C879.02 152.644 879.63 152.359 880.201 151.935C881.254 151.158 881.894 150.046 881.835 148.579C881.805 147.772 881.539 146.965 881.215 146.207C881.313 146.069 881.402 145.931 881.5 145.793C883.163 143.362 884.453 140.695 884.453 140.695C884.453 140.695 884.571 141.512 884.975 142.87C885.171 143.559 885.575 144.307 885.929 145.036C884.364 146.305 883.4 147.782 883.055 148.746C882.435 150.538 882.917 151.345 883.833 151.532C884.246 151.621 884.837 151.424 885.27 151.237C885.821 151.059 886.471 150.754 887.091 150.302C888.144 149.524 889.158 148.441 889.099 146.975C889.069 146.305 888.892 145.646 888.646 145.006C889.975 144.455 891.687 144.15 893.873 144.406C898.558 144.957 899.483 147.88 899.306 149.111C899.129 150.341 898.145 151.01 897.82 151.217C897.495 151.424 897.387 151.493 897.416 151.64C897.455 151.857 897.613 151.847 897.889 151.808C898.272 151.739 900.349 150.813 900.438 148.549C900.586 145.656 897.83 142.496 892.957 142.526ZM856.814 154.711C855.258 156.404 853.093 157.044 852.158 156.503C851.154 155.922 851.548 153.422 853.457 151.63C854.619 150.538 856.115 149.524 857.109 148.904C857.335 148.766 857.67 148.569 858.074 148.323C858.142 148.284 858.182 148.264 858.182 148.264C858.261 148.215 858.339 148.166 858.418 148.116C859.117 150.676 858.448 152.93 856.814 154.711ZM868.133 147.014C867.592 148.333 866.46 151.709 865.771 151.522C865.18 151.365 864.816 148.805 865.653 146.276C866.076 145.006 866.972 143.49 867.493 142.9C868.34 141.955 869.275 141.64 869.501 142.024C869.787 142.526 868.468 146.187 868.133 147.014ZM877.474 151.483C877.248 151.601 877.031 151.68 876.933 151.621C876.864 151.581 877.031 151.424 877.031 151.424C877.031 151.424 878.203 150.164 878.665 149.593C878.931 149.258 879.246 148.864 879.581 148.422C879.581 148.461 879.581 148.51 879.581 148.549C879.581 150.055 878.124 151.069 877.474 151.483ZM884.679 149.839C884.512 149.721 884.541 149.327 885.103 148.097C885.319 147.614 885.831 146.807 886.707 146.03C886.805 146.345 886.874 146.65 886.864 146.935C886.855 148.835 885.496 149.544 884.679 149.839Z" fill="#CD6799"/>
<path d="M897.259 -26.4443L892.93 22.05L873.471 27.4446L854.066 22.0576L849.742 -26.4443H897.259Z" fill="#264DE4"/>
<path d="M889.223 18.9621L892.923 -22.4785H873.5V23.3213L889.223 18.9621Z" fill="#2965F1"/>
<path d="M859.656 -4.48975L860.189 1.45876H873.501V-4.48975H859.656Z" fill="#EBEBEB"/>
<path d="M873.501 17.1478V10.9588L873.475 10.9657L866.85 9.17687L866.427 4.43262H863.207H860.455L861.288 13.7727L873.474 17.1554L873.501 17.1478Z" fill="#EBEBEB"/>
<path d="M880.805 1.45876L880.115 9.1736L873.48 10.9643V17.1531L885.675 13.7732L885.765 12.7682L887.163 -2.89238L887.308 -4.48974L888.382 -16.5298H873.48V-10.5812H881.863L881.321 -4.48974H873.48V1.45876H880.805Z" fill="white"/>
<path d="M1003.52 291.455C1007.17 291.455 1010.12 294.412 1010.12 298.061C1010.12 301.71 1007.17 304.667 1003.52 304.667C999.87 304.667 996.912 301.71 996.912 298.061C996.912 294.412 999.87 291.455 1003.52 291.455ZM1020.9 271.435C1017.23 271.637 1014.39 274.71 1014.47 278.381V296.124C1014.47 300.939 1016.59 303.862 1019.7 304.485C1023.28 305.211 1026.77 302.896 1027.5 299.314C1027.59 298.875 1027.63 298.43 1027.63 297.982V278.074C1027.64 274.412 1024.67 271.439 1021.01 271.433C1020.98 271.433 1020.94 271.433 1020.9 271.435Z" fill="#E37400"/>
<path d="M1020.83 388.703L1022.25 391.404C1022.57 391.902 1022.92 392.343 1023.33 392.754C1024.53 393.949 1025.64 395.223 1026.67 396.57C1029.08 399.769 1030.71 403.322 1031.87 407.165C1032.57 409.512 1032.94 411.92 1032.97 414.355C1033.09 421.635 1030.62 427.885 1025.64 433.08C1024.83 433.904 1023.95 434.66 1023.02 435.34C1022.53 435.34 1022.3 434.958 1022.09 434.606C1021.72 433.953 1021.48 433.236 1021.37 432.493C1021.19 431.612 1021.08 430.731 1021.13 429.822V429.411C1021.09 429.323 1020.66 388.91 1020.83 388.703Z" fill="#599636"/>
<path d="M1020.83 388.614C1020.77 388.496 1020.72 388.585 1020.66 388.642C1020.69 389.232 1020.48 389.757 1020.16 390.259C1019.81 390.757 1019.35 391.139 1018.89 391.55C1016.3 393.81 1014.27 396.54 1012.64 399.593C1010.47 403.701 1009.36 408.105 1009.04 412.741C1008.9 414.413 1009.56 420.313 1010.09 422.016C1011.51 426.535 1014.07 430.322 1017.38 433.609C1018.19 434.401 1019.06 435.135 1019.96 435.84C1020.22 435.84 1020.25 435.605 1020.31 435.429C1020.43 435.055 1020.51 434.672 1020.57 434.284L1021.16 429.883L1020.83 388.614Z" fill="#6CAC48"/>
<path d="M1022.26 437.128C1022.31 436.455 1022.63 435.896 1022.98 435.338C1022.63 435.192 1022.37 434.901 1022.17 434.576C1021.99 434.268 1021.85 433.944 1021.74 433.607C1021.33 432.375 1021.24 431.081 1021.13 429.822V429.059C1020.98 429.177 1020.95 430.174 1020.95 430.322C1020.87 431.653 1020.69 432.977 1020.43 434.284C1020.34 434.813 1020.28 435.34 1019.96 435.81C1019.96 435.869 1019.96 435.928 1019.99 436.015C1020.51 437.571 1020.66 439.156 1020.74 440.771V441.36C1020.74 442.064 1020.72 441.916 1021.29 442.151C1021.53 442.239 1021.79 442.269 1022.02 442.444C1022.2 442.444 1022.22 442.298 1022.22 442.18L1022.14 441.212V438.511C1022.11 438.039 1022.2 437.571 1022.25 437.13L1022.26 437.128Z" fill="#C2BFBF"/>
<path d="M1009.36 550.091C1009.36 550.754 1009.43 551.292 1009.56 551.686C1009.7 552.08 1009.88 552.51 1010.13 552.976C1010.22 553.12 1010.25 553.263 1010.25 553.389C1010.25 553.568 1010.14 553.747 1009.91 553.926L1008.8 554.679C1008.64 554.787 1008.48 554.84 1008.33 554.84C1008.16 554.84 1007.98 554.751 1007.8 554.59C1007.55 554.321 1007.34 554.034 1007.16 553.747C1006.99 553.442 1006.81 553.102 1006.61 552.69C1005.23 554.339 1003.49 555.163 1001.4 555.163C999.909 555.163 998.721 554.733 997.852 553.873C996.983 553.012 996.539 551.865 996.539 550.431C996.539 548.908 997.071 547.671 998.153 546.739C999.235 545.807 1000.67 545.341 1002.5 545.341C1003.1 545.341 1003.72 545.395 1004.38 545.485C1005.04 545.574 1005.71 545.718 1006.42 545.879V544.571C1006.42 543.208 1006.14 542.259 1005.59 541.703C1005.02 541.147 1004.06 540.878 1002.69 540.878C1002.07 540.878 1001.43 540.95 1000.78 541.111C1000.12 541.273 999.484 541.47 998.863 541.721C998.579 541.846 998.366 541.918 998.242 541.954C998.118 541.99 998.029 542.008 997.958 542.008C997.71 542.008 997.586 541.828 997.586 541.452V540.574C997.586 540.287 997.621 540.072 997.71 539.946C997.798 539.821 997.958 539.696 998.206 539.57C998.827 539.248 999.572 538.979 1000.44 538.764C1001.31 538.531 1002.23 538.423 1003.21 538.423C1005.32 538.423 1006.86 538.907 1007.86 539.875C1008.83 540.843 1009.33 542.312 1009.33 544.284V550.091H1009.36ZM1002.16 552.815C1002.75 552.815 1003.35 552.708 1003.99 552.493C1004.63 552.277 1005.2 551.883 1005.67 551.345C1005.96 551.005 1006.17 550.629 1006.28 550.198C1006.38 549.768 1006.45 549.248 1006.45 548.639V547.886C1005.94 547.761 1005.39 547.653 1004.82 547.582C1004.26 547.51 1003.71 547.474 1003.16 547.474C1001.97 547.474 1001.1 547.707 1000.51 548.191C999.927 548.675 999.643 549.356 999.643 550.252C999.643 551.095 999.856 551.722 1000.3 552.152C1000.73 552.6 1001.35 552.815 1002.16 552.815ZM1016.41 554.751C1016.09 554.751 1015.87 554.697 1015.73 554.572C1015.59 554.464 1015.47 554.213 1015.36 553.873L1011.19 540.018C1011.08 539.66 1011.03 539.427 1011.03 539.301C1011.03 539.015 1011.17 538.853 1011.46 538.853H1013.2C1013.53 538.853 1013.76 538.907 1013.89 539.032C1014.03 539.14 1014.14 539.391 1014.24 539.731L1017.22 551.596L1019.99 539.731C1020.08 539.373 1020.18 539.14 1020.33 539.032C1020.47 538.925 1020.72 538.853 1021.04 538.853H1022.45C1022.79 538.853 1023.02 538.907 1023.16 539.032C1023.31 539.14 1023.43 539.391 1023.5 539.731L1026.3 551.74L1029.37 539.731C1029.48 539.373 1029.6 539.14 1029.73 539.032C1029.87 538.925 1030.1 538.853 1030.42 538.853H1032.07C1032.35 538.853 1032.51 538.997 1032.51 539.301C1032.51 539.391 1032.49 539.481 1032.48 539.588C1032.46 539.696 1032.42 539.839 1032.35 540.036L1028.08 553.891C1027.97 554.249 1027.85 554.482 1027.7 554.59C1027.56 554.697 1027.33 554.769 1027.03 554.769H1025.51C1025.17 554.769 1024.94 554.715 1024.8 554.59C1024.65 554.464 1024.53 554.231 1024.46 553.873L1021.71 542.312L1018.98 553.855C1018.89 554.213 1018.78 554.446 1018.64 554.572C1018.5 554.697 1018.25 554.751 1017.93 554.751H1016.41ZM1039.2 555.235C1038.28 555.235 1037.35 555.127 1036.47 554.912C1035.58 554.697 1034.89 554.464 1034.43 554.195C1034.14 554.034 1033.95 553.855 1033.88 553.693C1033.81 553.532 1033.77 553.353 1033.77 553.192V552.277C1033.77 551.901 1033.91 551.722 1034.18 551.722C1034.29 551.722 1034.39 551.74 1034.5 551.776C1034.61 551.811 1034.76 551.883 1034.94 551.955C1035.55 552.224 1036.2 552.439 1036.89 552.582C1037.6 552.726 1038.29 552.797 1039 552.797C1040.12 552.797 1040.99 552.6 1041.59 552.206C1042.2 551.811 1042.52 551.238 1042.52 550.503C1042.52 550.001 1042.36 549.589 1042.04 549.248C1041.72 548.908 1041.11 548.603 1040.25 548.316L1037.67 547.51C1036.38 547.098 1035.42 546.488 1034.84 545.682C1034.25 544.893 1033.95 544.015 1033.95 543.083C1033.95 542.33 1034.11 541.667 1034.43 541.094C1034.75 540.52 1035.17 540.018 1035.7 539.624C1036.24 539.212 1036.84 538.907 1037.55 538.692C1038.26 538.477 1039 538.387 1039.78 538.387C1040.17 538.387 1040.58 538.405 1040.97 538.459C1041.38 538.513 1041.75 538.584 1042.13 538.656C1042.48 538.746 1042.82 538.835 1043.14 538.943C1043.46 539.05 1043.7 539.158 1043.88 539.265C1044.13 539.409 1044.31 539.552 1044.41 539.714C1044.52 539.857 1044.57 540.054 1044.57 540.305V541.147C1044.57 541.524 1044.43 541.721 1044.17 541.721C1044.02 541.721 1043.79 541.649 1043.49 541.506C1042.48 541.04 1041.35 540.807 1040.09 540.807C1039.08 540.807 1038.28 540.968 1037.73 541.309C1037.18 541.649 1036.89 542.169 1036.89 542.904C1036.89 543.406 1037.07 543.836 1037.43 544.176C1037.78 544.517 1038.44 544.857 1039.38 545.162L1041.9 545.969C1043.17 546.381 1044.09 546.954 1044.64 547.689C1045.19 548.424 1045.46 549.266 1045.46 550.198C1045.46 550.969 1045.3 551.668 1045 552.277C1044.68 552.887 1044.25 553.425 1043.7 553.855C1043.15 554.303 1042.5 554.625 1041.74 554.858C1040.94 555.109 1040.1 555.235 1039.2 555.235Z" fill="white"/>
<path d="M1021 164.321L1030.82 133.783H1011.18L1021 164.321H1021Z" fill="#E24329"/>
<path d="M1021 164.32L1011.18 133.782H997.418L1021 164.32Z" fill="#FC6D26"/>
<path d="M997.418 133.782L994.434 143.063C994.301 143.475 994.301 143.92 994.433 144.332C994.566 144.745 994.825 145.104 995.172 145.359L1021 164.321L997.417 133.782L997.418 133.782Z" fill="#FCA326"/>
<path d="M997.418 133.782H1011.18L1005.27 115.389C1004.96 114.443 1003.64 114.443 1003.33 115.389L997.418 133.782Z" fill="#E24329"/>
<path d="M1021 164.32L1030.82 133.782H1044.58L1021 164.32H1021Z" fill="#FC6D26"/>
<path d="M1044.58 133.782L1047.57 143.063C1047.7 143.475 1047.7 143.92 1047.57 144.332C1047.43 144.745 1047.18 145.104 1046.83 145.359L1021 164.321L1044.58 133.782V133.782Z" fill="#FCA326"/>
<path d="M994.334 -26.4443H1047.67V27.4446H994.334V-26.4443Z" fill="#CC0000"/>
<path d="M1020.82 -20.6567H1000.06V21.6547H1020.82V-9.98674H1031.38V21.6547H1041.94V-20.6567H1020.82Z" fill="white"/>
<path d="M256.777 251.889H311.222V304.111H256.777V251.889Z" fill="url(#paint1_linear_101_659)"/>
<path d="M276.639 278.474H281.464L279.052 269.308L276.639 278.474ZM260.896 255.978V300.048H307.172V255.978H260.896ZM284.113 288.525L282.347 282.568H275.814L274.049 288.525H269.576L275.873 267.463V265.157H281.876L289.057 288.525H284.113ZM296.002 288.525H291.176V270.749H296.002V288.525ZM293.618 268.616C292.236 268.616 291.116 267.532 291.116 266.195C291.116 264.857 292.236 263.773 293.618 263.773C295 263.773 296.119 264.857 296.119 266.195C296.119 267.532 294.999 268.616 293.618 268.616Z" fill="url(#paint2_linear_101_659)"/>
<path d="M310.548 396.532L285.44 441.741C284.922 442.675 283.59 442.68 283.064 441.751L257.458 396.536C256.885 395.524 257.744 394.298 258.883 394.503L284.018 399.027C284.179 399.056 284.343 399.055 284.503 399.026L309.112 394.509C310.248 394.301 311.111 395.518 310.548 396.532Z" fill="url(#paint3_linear_101_659)"/>
<path d="M295.991 388.569L277.411 392.235C277.262 392.264 277.128 392.343 277.028 392.457C276.929 392.572 276.87 392.717 276.861 392.869L275.718 412.307C275.712 412.413 275.73 412.52 275.772 412.618C275.814 412.716 275.878 412.803 275.959 412.872C276.04 412.941 276.136 412.99 276.239 413.015C276.342 413.04 276.449 413.041 276.553 413.017L281.726 411.815C282.21 411.702 282.647 412.132 282.547 412.622L281.011 420.2C280.907 420.71 281.383 421.146 281.877 420.995L285.073 420.017C285.568 419.866 286.044 420.303 285.939 420.814L283.497 432.718C283.344 433.462 284.327 433.868 284.737 433.23L285.012 432.804L300.152 402.378C300.406 401.868 299.968 401.288 299.413 401.396L294.088 402.43C293.588 402.528 293.162 402.058 293.303 401.566L296.778 389.434C296.92 388.94 296.492 388.47 295.992 388.569H295.991Z" fill="url(#paint4_linear_101_659)"/>
<path d="M259.045 530.474H308.952V578.525H259.045V530.474Z" fill="url(#paint5_radial_101_659)"/>
<path d="M259.046 530.474H308.953V578.525H259.046V530.474ZM256.777 580.771H311.222V528.229H256.777V580.771ZM291.214 550.054C290.873 549.897 290.42 549.829 289.875 549.829C286.949 549.829 284.907 552.052 284.907 555.757C284.907 559.979 286.994 561.685 289.603 561.685C290.17 561.685 290.76 561.618 291.214 561.416V550.054ZM290.011 546.394C290.488 546.394 290.76 546.394 291.213 546.439V540.466C291.213 540.309 291.327 540.242 291.44 540.242H295.115C295.297 540.242 295.342 540.309 295.342 540.421V561.416C295.342 562.044 295.342 562.83 295.455 563.683C295.455 563.841 295.41 563.863 295.251 563.953C293.3 564.874 291.236 565.278 289.308 565.278C284.294 565.278 280.71 562.202 280.71 555.937C280.688 550.57 284.272 546.394 290.011 546.394ZM276.695 564.649C276.695 564.873 276.65 564.941 276.4 564.941H272.907C272.68 564.941 272.612 564.829 272.612 564.649V540.534C272.612 540.309 272.725 540.242 272.907 540.242H276.423C276.604 540.242 276.695 540.309 276.695 540.511V564.649Z" fill="#FF408C"/>
<path d="M283.999 112.556L259.939 126.028V152.972L283.999 166.445L308.059 152.972V126.028L283.999 112.556Z" fill="white"/>
<path d="M264.235 152.043L283.205 162.663V154.391L271.386 147.956L264.235 152.043ZM262.938 150.88V128.668L269.879 132.634V146.91L262.938 150.88ZM303.839 152.043L284.87 162.663V154.391L296.689 147.956L303.839 152.043ZM305.137 150.88V128.668L298.195 132.634V146.91L305.137 150.88ZM304.325 127.231L284.87 116.337V124.335L297.333 131.12L297.428 131.174L304.325 127.231ZM263.75 127.231L283.205 116.337V124.335L270.741 131.12L270.646 131.174L263.75 127.231Z" fill="#8ED6FB"/>
<path d="M284.871 152.51L296.531 146.164V133.59L284.871 140.254V152.51ZM283.206 152.51L271.546 146.164V133.59L283.206 140.254V152.51ZM295.742 132.135L284.036 125.763L272.331 132.135L284.036 138.826L295.742 132.135Z" fill="#1C78C0"/>
<path d="M264.361 22.074L259.994 -26.4443H308.007L303.64 22.0478L283.961 27.4446" fill="#E44D26"/>
<path d="M284 23.3188V-22.4619H303.626L299.881 18.9306" fill="#F16529"/>
<path d="M268.914 -16.5283H284.001V-10.5814H275.505L276.06 -4.49043H284.001V1.44337H270.555L268.914 -16.5283ZM270.82 4.42992H276.854L277.278 9.18483L284.001 10.9663V17.1752L271.667 13.7694" fill="#EBEBEB"/>
<path d="M299.035 -16.5283H283.975V-10.5814H298.479L299.035 -16.5283ZM297.936 -4.49042H283.975V1.45648H291.386L290.684 9.18483L283.975 10.9663V17.149L296.282 13.7694" fill="white"/>
<path d="M404.334 251.778H457.667V304.222H404.334V251.778Z" fill="url(#paint6_linear_101_659)"/>
<path d="M408.576 255.948H453.427V300.052H408.576V255.948Z" fill="url(#paint7_linear_101_659)"/>
<path d="M417.223 266.559C417.223 266.559 420.595 266.47 423.371 266.47C426.176 266.47 428.176 267.13 429.518 268.29C430.802 269.386 431.667 271.254 431.667 273.38C431.667 275.507 431.011 277.247 429.817 278.47C428.265 280.049 426.456 280.984 423.371 281.113C422.518 281.149 421.729 281.157 421.729 281.157V288.07H417.223L417.223 266.559ZM421.729 277.327C422.219 277.375 422.526 277.352 423.251 277.343C425.669 277.314 427.16 275.844 427.16 273.621C427.16 271.624 425.93 269.984 423.61 269.899C422.685 269.866 421.729 269.899 421.729 269.899V277.327Z" fill="url(#paint8_linear_101_659)"/>
<path d="M433.387 283.254C434.296 283.812 436.439 284.646 437.9 284.646C439.392 284.646 440.009 284.12 440.009 283.3C440.009 282.479 439.522 281.617 437.672 280.993C434.394 279.877 433.128 278.54 433.161 276.67C433.161 273.65 435.692 271.385 439.619 271.385C441.469 271.385 442.947 271.99 443.92 272.482V276.107C443.205 275.713 441.144 274.832 439.782 274.832C438.58 274.832 437.899 275.325 437.899 276.145C437.899 276.9 438.516 277.294 440.463 277.984C443.481 279.034 444.747 280.576 444.779 282.94C444.779 285.927 442.476 288.303 437.899 288.159C436.328 288.109 434.588 287.488 433.387 286.833L433.387 283.254Z" fill="url(#paint9_linear_101_659)"/>
<path d="M450.371 395.686C445.416 388.524 435.628 386.401 428.553 390.954L416.127 398.954C415.291 399.484 414.511 400.101 413.801 400.795C413.091 401.488 412.454 402.255 411.902 403.081C411.349 403.908 410.882 404.79 410.509 405.714C410.137 406.639 409.861 407.599 409.685 408.581C409.538 409.404 409.458 410.239 409.447 411.075C409.436 411.913 409.494 412.749 409.619 413.576C409.745 414.404 409.938 415.219 410.196 416.015C410.454 416.81 410.777 417.582 411.162 418.323C410.897 418.729 410.653 419.148 410.43 419.579C410.207 420.01 410.005 420.453 409.826 420.904C409.648 421.356 409.492 421.817 409.359 422.284C409.226 422.752 409.118 423.226 409.032 423.705C408.677 425.717 408.724 427.781 409.17 429.775C409.393 430.768 409.713 431.738 410.126 432.668C410.539 433.598 411.042 434.485 411.629 435.315C416.584 442.477 426.371 444.599 433.446 440.046L445.872 432.08C446.708 431.548 447.486 430.93 448.196 430.236C448.905 429.542 449.542 428.776 450.095 427.949C450.648 427.124 451.114 426.241 451.487 425.317C451.86 424.395 452.137 423.434 452.314 422.452C452.461 421.629 452.54 420.796 452.551 419.959C452.562 419.122 452.504 418.286 452.377 417.459C452.252 416.633 452.059 415.818 451.8 415.022C451.54 414.228 451.217 413.456 450.833 412.715C451.097 412.31 451.342 411.889 451.565 411.459C451.788 411.028 451.99 410.585 452.169 410.134C452.348 409.682 452.505 409.221 452.638 408.754C452.771 408.287 452.881 407.813 452.968 407.334C453.144 406.33 453.22 405.311 453.197 404.292C453.174 403.273 453.05 402.259 452.828 401.264C452.605 400.27 452.286 399.301 451.873 398.371C451.46 397.44 450.957 396.554 450.371 395.724" fill="#FF3E00"/>
<path d="M427.338 436.007C426.366 436.262 425.36 436.366 424.357 436.315C423.354 436.262 422.364 436.057 421.422 435.704C420.48 435.351 419.597 434.855 418.803 434.233C418.009 433.611 417.314 432.87 416.742 432.037C416.388 431.537 416.086 431.005 415.838 430.445C415.59 429.886 415.398 429.303 415.264 428.706C415.131 428.107 415.057 427.498 415.043 426.885C415.03 426.272 415.077 425.66 415.184 425.056C415.201 424.958 415.22 424.86 415.242 424.763C415.262 424.665 415.285 424.568 415.31 424.472C415.334 424.374 415.361 424.278 415.39 424.182C415.417 424.087 415.447 423.991 415.479 423.897L415.713 423.175L416.351 423.656C416.717 423.926 417.094 424.18 417.482 424.418C417.869 424.656 418.266 424.877 418.672 425.081C419.077 425.285 419.492 425.472 419.913 425.64C420.334 425.809 420.762 425.959 421.197 426.092L421.673 426.231L421.63 426.712C421.607 427.04 421.641 427.369 421.73 427.685C421.773 427.843 421.831 427.996 421.902 428.143C421.972 428.291 422.055 428.432 422.149 428.565C422.322 428.816 422.532 429.039 422.771 429.226C423.01 429.414 423.276 429.563 423.56 429.669C423.844 429.775 424.141 429.836 424.444 429.852C424.746 429.868 425.049 429.836 425.342 429.759C425.409 429.741 425.475 429.72 425.541 429.697C425.607 429.674 425.672 429.648 425.735 429.62C425.799 429.592 425.861 429.561 425.924 429.528C425.985 429.495 426.045 429.46 426.104 429.423L438.511 421.422C438.663 421.326 438.805 421.214 438.934 421.088C439.063 420.961 439.178 420.821 439.278 420.671C439.379 420.521 439.462 420.36 439.53 420.192C439.597 420.024 439.647 419.849 439.679 419.671C439.71 419.488 439.723 419.304 439.719 419.119C439.714 418.934 439.691 418.751 439.65 418.57C439.61 418.39 439.552 418.215 439.476 418.045C439.401 417.877 439.308 417.717 439.202 417.567C439.029 417.316 438.82 417.094 438.58 416.907C438.341 416.72 438.075 416.57 437.792 416.464C437.508 416.358 437.21 416.296 436.908 416.281C436.605 416.265 436.302 416.297 436.009 416.373C435.942 416.391 435.876 416.412 435.81 416.435C435.744 416.459 435.68 416.484 435.616 416.512C435.552 416.541 435.489 416.571 435.428 416.604C435.367 416.637 435.306 416.673 435.247 416.711L430.483 419.767C430.289 419.891 430.089 420.008 429.886 420.118C429.682 420.227 429.476 420.328 429.265 420.422C429.054 420.516 428.839 420.601 428.622 420.677C428.405 420.755 428.185 420.823 427.962 420.883C426.991 421.137 425.988 421.24 424.986 421.188C423.985 421.135 422.998 420.929 422.057 420.578C421.117 420.225 420.236 419.729 419.444 419.109C418.651 418.488 417.957 417.75 417.385 416.918C417.033 416.418 416.731 415.885 416.485 415.325C416.237 414.766 416.046 414.183 415.913 413.586C415.78 412.988 415.707 412.378 415.695 411.765C415.682 411.153 415.729 410.541 415.836 409.938C416.047 408.752 416.5 407.622 417.166 406.623C417.833 405.623 418.7 404.775 419.71 404.133L432.155 396.133C432.349 396.009 432.546 395.892 432.748 395.783C432.95 395.674 433.157 395.572 433.366 395.478C433.576 395.385 433.789 395.3 434.005 395.223C434.221 395.146 434.44 395.076 434.661 395.016C435.634 394.762 436.639 394.657 437.641 394.708C438.644 394.761 439.633 394.966 440.575 395.319C441.517 395.672 442.399 396.168 443.193 396.79C443.987 397.413 444.681 398.154 445.254 398.987C445.606 399.486 445.91 400.018 446.158 400.578C446.406 401.137 446.599 401.719 446.733 402.317C446.867 402.916 446.941 403.526 446.955 404.138C446.969 404.751 446.923 405.363 446.816 405.967C446.797 406.066 446.778 406.165 446.755 406.263C446.734 406.361 446.711 406.459 446.686 406.556C446.662 406.654 446.635 406.751 446.608 406.847C446.58 406.945 446.551 407.041 446.52 407.136L446.283 407.858L445.649 407.377C445.282 407.105 444.904 406.849 444.515 406.609C444.127 406.37 443.729 406.147 443.322 405.941C442.507 405.53 441.66 405.19 440.789 404.922L440.312 404.783L440.355 404.302C440.369 404.137 440.368 403.972 440.353 403.808C440.338 403.644 440.309 403.481 440.266 403.322C440.223 403.164 440.167 403.008 440.096 402.86C440.027 402.711 439.944 402.568 439.85 402.434C439.676 402.187 439.466 401.969 439.227 401.786C438.989 401.602 438.724 401.457 438.442 401.354C437.876 401.146 437.26 401.118 436.677 401.274C436.609 401.292 436.543 401.313 436.478 401.335C436.412 401.359 436.347 401.385 436.283 401.413C436.219 401.44 436.156 401.472 436.095 401.504C436.033 401.538 435.973 401.573 435.914 401.61L423.484 409.596C423.332 409.693 423.191 409.805 423.063 409.931C422.934 410.057 422.819 410.196 422.718 410.346C422.618 410.496 422.534 410.656 422.466 410.823C422.398 410.992 422.349 411.165 422.316 411.343C422.285 411.526 422.272 411.711 422.276 411.896C422.287 412.267 422.37 412.633 422.519 412.971C422.595 413.14 422.687 413.301 422.793 413.452C422.965 413.7 423.173 413.921 423.411 414.107C423.648 414.293 423.912 414.441 424.193 414.547C424.759 414.76 425.376 414.794 425.961 414.645C426.028 414.626 426.095 414.606 426.161 414.582C426.226 414.559 426.291 414.533 426.355 414.505C426.418 414.477 426.481 414.446 426.542 414.413C426.604 414.381 426.664 414.346 426.723 414.308L431.488 411.257C431.683 411.131 431.881 411.012 432.085 410.902C432.288 410.792 432.495 410.69 432.707 410.596C432.919 410.502 433.133 410.417 433.351 410.34C433.569 410.263 433.79 410.195 434.013 410.135C434.985 409.88 435.99 409.775 436.993 409.826C437.996 409.877 438.985 410.082 439.927 410.435C440.868 410.787 441.751 411.283 442.545 411.905C443.339 412.527 444.033 413.267 444.605 414.101C444.958 414.6 445.261 415.133 445.509 415.692C445.757 416.252 445.95 416.834 446.084 417.432C446.218 418.029 446.292 418.639 446.307 419.252C446.321 419.865 446.274 420.478 446.168 421.08C446.063 421.672 445.897 422.251 445.674 422.808C445.45 423.366 445.17 423.898 444.837 424.396C444.505 424.894 444.122 425.357 443.695 425.775C443.267 426.193 442.798 426.566 442.294 426.886L429.863 434.885C429.668 435.01 429.469 435.128 429.266 435.238C429.062 435.348 428.854 435.449 428.643 435.543C428.432 435.637 428.217 435.723 427.999 435.8C427.782 435.877 427.561 435.947 427.338 436.007Z" fill="white"/>
<path d="M431.001 528.221C416.275 528.221 404.334 540.284 404.334 555.165C404.334 567.07 411.975 577.17 422.57 580.733C423.903 580.982 424.392 580.149 424.392 579.437C424.392 578.794 424.368 576.672 424.356 574.42C416.937 576.05 415.372 571.241 415.372 571.241C414.159 568.127 412.411 567.299 412.411 567.299C409.992 565.626 412.593 565.661 412.593 565.661C415.271 565.851 416.681 568.437 416.681 568.437C419.06 572.557 422.92 571.366 424.441 570.677C424.681 568.936 425.372 567.747 426.134 567.074C420.211 566.393 413.985 564.082 413.985 553.758C413.985 550.816 415.027 548.413 416.733 546.526C416.456 545.847 415.543 543.107 416.991 539.395C416.991 539.395 419.23 538.671 424.326 542.157C426.453 541.56 428.734 541.261 431.001 541.251C433.267 541.261 435.55 541.56 437.681 542.157C442.771 538.671 445.007 539.395 445.007 539.395C446.459 543.107 445.546 545.847 445.269 546.526C446.978 548.413 448.013 550.816 448.013 553.758C448.013 564.107 441.775 566.386 435.837 567.053C436.793 567.889 437.645 569.529 437.645 572.042C437.645 575.648 437.614 578.549 437.614 579.437C437.614 580.154 438.094 580.994 439.446 580.729C450.036 577.163 457.667 567.066 457.667 555.165C457.667 540.284 445.728 528.221 431.001 528.221Z" fill="white"/>
<g clip-path="url(#clip0_101_659)">
<path d="M449.477 130.008H466.895V133.223H459.985V150.137H456.53V133.223H449.477V130.008Z" fill="white"/>
<path d="M420.83 130.008V133.223H406.868V138.395H418.097V141.61H406.868V146.922H420.83V150.137H403.414V133.223H403.412V130.008H420.83Z" fill="white"/>
<path d="M429.527 130.017H425.006L441.2 150.145H445.735L437.637 140.088L445.722 130.032L441.2 130.039L435.373 137.276L429.527 130.017Z" fill="white"/>
<path d="M434.168 144.395L431.904 141.58L424.994 150.161H429.528L434.168 144.395Z" fill="white"/>
<path fill-rule="evenodd" clip-rule="evenodd" d="M403.535 150.137L387.319 130H383V150.128H386.455V134.302L399.195 150.137H403.535Z" fill="white"/>
<path d="M467.671 150.014C467.418 150.014 467.203 149.926 467.023 149.751C466.843 149.576 466.754 149.363 466.756 149.112C466.754 148.867 466.843 148.658 467.023 148.482C467.203 148.307 467.418 148.219 467.671 148.219C467.915 148.219 468.128 148.307 468.308 148.482C468.491 148.658 468.582 148.867 468.584 149.112C468.582 149.278 468.54 149.43 468.455 149.566C468.369 149.705 468.259 149.813 468.121 149.892C467.985 149.972 467.835 150.014 467.671 150.014Z" fill="white"/>
<path d="M473.568 141.534H475.099V147.432C475.097 147.975 474.98 148.438 474.751 148.828C474.519 149.218 474.198 149.515 473.786 149.725C473.377 149.933 472.897 150.039 472.351 150.039C471.852 150.039 471.406 149.949 471.008 149.774C470.61 149.598 470.294 149.336 470.062 148.99C469.828 148.643 469.713 148.212 469.713 147.695H471.246C471.249 147.922 471.3 148.118 471.398 148.281C471.497 148.445 471.632 148.57 471.806 148.657C471.981 148.745 472.183 148.789 472.41 148.789C472.656 148.789 472.866 148.738 473.037 148.634C473.208 148.533 473.339 148.381 473.43 148.178C473.519 147.977 473.566 147.728 473.568 147.432V141.534Z" fill="white"/>
<path d="M481.399 143.841C481.362 143.484 481.198 143.204 480.912 143.006C480.624 142.805 480.252 142.706 479.795 142.706C479.475 142.706 479.199 142.755 478.969 142.849C478.74 142.946 478.562 143.075 478.44 143.239C478.319 143.403 478.258 143.59 478.253 143.8C478.253 143.975 478.295 144.127 478.377 144.254C478.459 144.383 478.569 144.492 478.712 144.579C478.852 144.669 479.009 144.743 479.18 144.803C479.353 144.863 479.526 144.914 479.7 144.955L480.498 145.151C480.819 145.225 481.13 145.324 481.427 145.451C481.724 145.576 481.994 145.735 482.23 145.926C482.467 146.118 482.654 146.349 482.792 146.618C482.93 146.888 483 147.204 483 147.569C483 148.06 482.874 148.491 482.619 148.865C482.363 149.237 481.996 149.527 481.514 149.737C481.034 149.945 480.453 150.051 479.77 150.051C479.11 150.051 478.534 149.949 478.049 149.746C477.562 149.546 477.183 149.25 476.909 148.863C476.635 148.475 476.488 148.002 476.467 147.447H477.984C478.005 147.737 478.099 147.979 478.258 148.175C478.419 148.369 478.63 148.512 478.887 148.609C479.147 148.704 479.437 148.752 479.758 148.752C480.093 148.752 480.388 148.701 480.643 148.602C480.896 148.503 481.095 148.365 481.238 148.185C481.383 148.007 481.455 147.797 481.458 147.557C481.455 147.338 481.39 147.156 481.263 147.013C481.135 146.87 480.957 146.75 480.729 146.653C480.5 146.556 480.233 146.468 479.929 146.392L478.96 146.148C478.26 145.97 477.705 145.7 477.3 145.338C476.893 144.976 476.691 144.496 476.691 143.894C476.691 143.401 476.827 142.967 477.101 142.596C477.373 142.224 477.745 141.936 478.216 141.73C478.688 141.523 479.222 141.421 479.817 141.421C480.421 141.421 480.95 141.523 481.406 141.73C481.862 141.936 482.221 142.222 482.481 142.586C482.74 142.951 482.876 143.368 482.883 143.841H481.399Z" fill="white"/>
</g>
<path d="M426.995 -4.40735C433.171 -7.87407 441.629 -12.6231 441.629 -26.4443H431.387C431.387 -18.7113 427.661 -16.6198 422.021 -13.4537C415.845 -9.98566 407.387 -5.23874 407.387 8.58387H417.629C417.629 0.850319 421.355 -1.2412 426.995 -4.40735Z" fill="#FF3C00"/>
<path d="M444.721 -7.5835C444.721 0.149941 440.995 2.24146 435.355 5.40708C429.181 8.87385 420.721 13.6222 420.721 27.4445H430.962C430.962 19.711 434.688 17.6195 440.328 14.4535C446.504 10.9867 454.962 6.239 454.962 -7.5835H444.721Z" fill="#FF3C00"/>
<path d="M605.444 251.333H551.555V304.667H605.444V251.333Z" fill="#F7DF1E"/>
<path d="M587.755 293C588.84 294.754 590.252 296.044 592.75 296.044C594.848 296.044 596.189 295.006 596.189 293.572C596.189 291.853 594.812 291.244 592.502 290.245L591.236 289.707C587.582 288.166 585.154 286.236 585.154 282.156C585.154 278.397 588.048 275.536 592.571 275.536C595.79 275.536 598.105 276.645 599.773 279.548L595.83 282.054C594.961 280.513 594.025 279.906 592.571 279.906C591.087 279.906 590.147 280.838 590.147 282.054C590.147 283.558 591.088 284.166 593.261 285.098L594.527 285.634C598.829 287.46 601.259 289.322 601.259 293.507C601.259 298.019 597.677 300.491 592.867 300.491C588.164 300.491 585.126 298.273 583.64 295.366L587.755 293ZM569.866 293.434C570.662 294.831 571.385 296.012 573.125 296.012C574.789 296.012 575.838 295.368 575.838 292.863V275.822H580.902V292.931C580.902 298.12 577.828 300.482 573.341 300.482C569.286 300.482 566.938 298.405 565.744 295.904L569.866 293.434Z" fill="black"/>
<path d="M605.075 414.839L602.813 413.439C602.794 413.219 602.773 412.999 602.749 412.78L604.693 410.966C604.79 410.876 604.863 410.762 604.903 410.636C604.944 410.51 604.952 410.375 604.926 410.245C604.9 410.115 604.841 409.993 604.756 409.892C604.67 409.791 604.559 409.714 604.435 409.667L601.95 408.738C601.887 408.523 601.822 408.31 601.755 408.096L603.305 405.943C603.383 405.836 603.432 405.71 603.447 405.578C603.463 405.446 603.444 405.313 603.393 405.19C603.342 405.067 603.261 404.96 603.157 404.877C603.053 404.795 602.93 404.741 602.799 404.719L600.178 404.293C600.076 404.094 599.97 403.899 599.863 403.704L600.964 401.287C601.019 401.167 601.043 401.034 601.032 400.901C601.022 400.769 600.977 400.642 600.903 400.532C600.83 400.421 600.729 400.331 600.611 400.271C600.493 400.21 600.362 400.181 600.229 400.186L597.569 400.279C597.432 400.106 597.292 399.937 597.149 399.769L597.76 397.178C597.791 397.049 597.788 396.914 597.751 396.786C597.715 396.658 597.647 396.542 597.553 396.448C597.459 396.355 597.343 396.286 597.215 396.25C597.087 396.214 596.953 396.21 596.823 396.241L594.233 396.852C594.065 396.709 593.895 396.569 593.723 396.431L593.816 393.772C593.821 393.639 593.791 393.507 593.731 393.389C593.671 393.271 593.581 393.171 593.47 393.097C593.36 393.023 593.233 392.979 593.1 392.968C592.968 392.957 592.835 392.981 592.715 393.036L590.298 394.138C590.103 394.03 589.907 393.925 589.709 393.822L589.282 391.201C589.261 391.07 589.206 390.947 589.124 390.843C589.042 390.739 588.934 390.658 588.812 390.607C588.689 390.556 588.556 390.537 588.424 390.553C588.292 390.568 588.166 390.617 588.059 390.694L585.904 392.244C585.692 392.177 585.479 392.112 585.264 392.05L584.334 389.565C584.288 389.44 584.211 389.329 584.109 389.243C584.008 389.157 583.887 389.098 583.756 389.073C583.626 389.047 583.492 389.055 583.366 389.096C583.24 389.137 583.126 389.209 583.036 389.306L581.222 391.251C581.003 391.227 580.783 391.205 580.563 391.187L579.163 388.924C579.093 388.811 578.996 388.718 578.88 388.654C578.764 388.589 578.634 388.555 578.501 388.555C578.368 388.555 578.238 388.589 578.122 388.654C578.006 388.718 577.909 388.811 577.839 388.924L576.439 391.187C576.218 391.205 575.999 391.227 575.779 391.251L573.965 389.306C573.875 389.208 573.761 389.136 573.635 389.095C573.508 389.054 573.374 389.047 573.244 389.073C573.113 389.099 572.992 389.157 572.891 389.243C572.79 389.33 572.713 389.44 572.666 389.565L571.737 392.05C571.522 392.112 571.309 392.177 571.096 392.244L568.942 390.694C568.834 390.616 568.709 390.567 568.577 390.552C568.445 390.537 568.311 390.556 568.189 390.607C568.066 390.658 567.959 390.739 567.876 390.843C567.794 390.947 567.74 391.07 567.718 391.201L567.291 393.822C567.093 393.924 566.897 394.03 566.702 394.138L564.286 393.036C564.165 392.981 564.032 392.957 563.9 392.968C563.768 392.979 563.64 393.023 563.53 393.097C563.42 393.17 563.33 393.271 563.269 393.389C563.209 393.507 563.18 393.639 563.185 393.772L563.277 396.431C563.105 396.569 562.935 396.709 562.767 396.852L560.176 396.241C560.047 396.211 559.912 396.214 559.785 396.25C559.657 396.286 559.541 396.355 559.447 396.448C559.353 396.542 559.284 396.658 559.248 396.786C559.212 396.914 559.209 397.049 559.239 397.178L559.849 399.769C559.708 399.937 559.568 400.107 559.43 400.279L556.77 400.186C556.638 400.182 556.507 400.211 556.389 400.272C556.271 400.332 556.17 400.421 556.096 400.531C556.022 400.642 555.978 400.769 555.967 400.901C555.956 401.033 555.98 401.166 556.035 401.287L557.136 403.704C557.029 403.899 556.923 404.094 556.821 404.293L554.2 404.719C554.069 404.741 553.946 404.795 553.842 404.878C553.738 404.96 553.657 405.067 553.606 405.19C553.555 405.313 553.536 405.446 553.552 405.578C553.567 405.71 553.616 405.835 553.693 405.943L555.244 408.097C555.176 408.309 555.111 408.523 555.049 408.738L552.563 409.667C552.439 409.714 552.329 409.792 552.243 409.893C552.158 409.994 552.099 410.115 552.073 410.245C552.047 410.375 552.055 410.51 552.096 410.636C552.136 410.762 552.209 410.876 552.306 410.966L554.25 412.78C554.226 412.999 554.204 413.219 554.186 413.439L551.923 414.839C551.81 414.909 551.717 415.007 551.653 415.122C551.588 415.238 551.555 415.369 551.555 415.501C551.555 415.772 551.694 416.022 551.923 416.163L554.186 417.563C554.204 417.784 554.226 418.004 554.25 418.222L552.305 420.036C552.208 420.127 552.136 420.24 552.095 420.367C552.054 420.493 552.047 420.628 552.072 420.758C552.098 420.888 552.157 421.009 552.243 421.11C552.329 421.211 552.439 421.289 552.563 421.335L555.049 422.264C555.111 422.479 555.176 422.693 555.244 422.906L553.693 425.059C553.616 425.167 553.567 425.293 553.551 425.425C553.536 425.557 553.555 425.69 553.606 425.813C553.656 425.935 553.738 426.043 553.842 426.125C553.946 426.208 554.07 426.262 554.201 426.283L556.821 426.709C556.923 426.908 557.028 427.104 557.137 427.299L556.035 429.715C555.979 429.836 555.956 429.969 555.967 430.101C555.978 430.233 556.022 430.361 556.096 430.471C556.169 430.581 556.27 430.671 556.388 430.732C556.506 430.792 556.638 430.821 556.77 430.816L559.429 430.723C559.568 430.896 559.707 431.066 559.849 431.234L559.239 433.825C559.209 433.954 559.212 434.089 559.248 434.216C559.284 434.344 559.353 434.46 559.447 434.553C559.54 434.647 559.657 434.716 559.784 434.752C559.912 434.788 560.047 434.791 560.176 434.76L562.767 434.15C562.935 434.293 563.105 434.432 563.277 434.569L563.185 437.23C563.18 437.362 563.209 437.494 563.27 437.612C563.33 437.73 563.42 437.831 563.53 437.904C563.64 437.978 563.768 438.022 563.9 438.033C564.032 438.043 564.165 438.02 564.286 437.965L566.702 436.864C566.897 436.972 567.093 437.077 567.291 437.179L567.718 439.799C567.739 439.93 567.794 440.053 567.876 440.157C567.958 440.262 568.066 440.343 568.189 440.394C568.311 440.444 568.445 440.463 568.577 440.448C568.708 440.433 568.834 440.384 568.942 440.307L571.095 438.755C571.308 438.823 571.522 438.888 571.737 438.95L572.666 441.435C572.712 441.559 572.79 441.67 572.891 441.756C572.992 441.842 573.113 441.9 573.244 441.926C573.374 441.952 573.508 441.944 573.635 441.904C573.761 441.863 573.875 441.79 573.965 441.693L575.779 439.748C575.998 439.774 576.218 439.795 576.438 439.814L577.839 442.077C577.908 442.189 578.006 442.282 578.122 442.347C578.237 442.411 578.368 442.445 578.5 442.445C578.633 442.445 578.763 442.411 578.879 442.347C578.995 442.282 579.092 442.189 579.162 442.077L580.563 439.814C580.783 439.795 581.003 439.774 581.222 439.748L583.035 441.693C583.125 441.79 583.239 441.863 583.365 441.903C583.491 441.944 583.626 441.952 583.756 441.926C583.886 441.9 584.008 441.842 584.109 441.756C584.21 441.67 584.287 441.559 584.334 441.435L585.263 438.95C585.478 438.888 585.692 438.823 585.905 438.755L588.058 440.307C588.166 440.384 588.292 440.433 588.424 440.448C588.555 440.463 588.689 440.444 588.811 440.394C588.934 440.343 589.042 440.261 589.124 440.157C589.206 440.053 589.261 439.93 589.282 439.799L589.709 437.179C589.907 437.077 590.102 436.97 590.297 436.863L592.714 437.965C592.835 438.02 592.968 438.044 593.1 438.033C593.232 438.023 593.36 437.979 593.47 437.905C593.58 437.831 593.67 437.73 593.731 437.612C593.791 437.494 593.82 437.362 593.815 437.23L593.723 434.569C593.895 434.432 594.065 434.293 594.233 434.15L596.823 434.76C597.086 434.822 597.362 434.746 597.552 434.553C597.646 434.46 597.714 434.344 597.751 434.216C597.787 434.089 597.79 433.954 597.76 433.825L597.15 431.234C597.292 431.066 597.432 430.896 597.568 430.723L600.228 430.816C600.361 430.821 600.493 430.792 600.611 430.732C600.729 430.671 600.829 430.582 600.903 430.471C600.977 430.361 601.021 430.233 601.032 430.101C601.043 429.969 601.019 429.836 600.964 429.715L599.862 427.299C599.97 427.104 600.076 426.908 600.177 426.709L602.798 426.283C602.929 426.262 603.053 426.208 603.157 426.125C603.261 426.043 603.342 425.935 603.392 425.812C603.443 425.69 603.462 425.556 603.446 425.424C603.431 425.293 603.382 425.167 603.305 425.059L601.754 422.906C601.821 422.693 601.887 422.479 601.949 422.264L604.434 421.335C604.559 421.289 604.669 421.211 604.755 421.11C604.841 421.009 604.9 420.887 604.925 420.757C604.951 420.627 604.944 420.493 604.903 420.366C604.862 420.24 604.79 420.127 604.692 420.036L602.748 418.222C602.772 418.004 602.794 417.783 602.812 417.564L605.075 416.163C605.188 416.093 605.281 415.996 605.345 415.88C605.41 415.764 605.444 415.634 605.444 415.501C605.444 415.232 605.305 414.981 605.075 414.839ZM589.933 433.607C589.07 433.421 588.52 432.569 588.706 431.702C588.89 430.837 589.741 430.286 590.605 430.472C591.469 430.657 592.019 431.51 591.834 432.375C591.649 433.24 590.797 433.792 589.933 433.607ZM589.165 428.408C588.977 428.367 588.784 428.365 588.595 428.399C588.407 428.434 588.227 428.505 588.066 428.61C587.905 428.714 587.766 428.849 587.657 429.007C587.549 429.165 587.472 429.343 587.432 429.53L586.629 433.279C584.15 434.403 581.398 435.028 578.499 435.028C575.534 435.028 572.722 434.373 570.199 433.2L569.396 429.451C569.227 428.663 568.452 428.16 567.664 428.329L564.355 429.04C563.74 428.407 563.168 427.733 562.644 427.023H578.745C578.928 427.023 579.049 426.99 579.049 426.824V421.129C579.049 420.963 578.928 420.93 578.745 420.93H574.036V417.32H579.13C579.594 417.32 581.615 417.453 582.261 420.036C582.464 420.83 582.908 423.415 583.212 424.242C583.515 425.17 584.747 427.023 586.061 427.023H594.084C594.175 427.023 594.273 427.013 594.375 426.994C593.818 427.75 593.209 428.466 592.55 429.135L589.165 428.408H589.165ZM566.896 433.529C566.031 433.715 565.181 433.164 564.995 432.299C564.81 431.432 565.36 430.581 566.223 430.394C567.088 430.209 567.939 430.76 568.124 431.626C568.309 432.491 567.759 433.343 566.895 433.529H566.896ZM560.787 408.761C561.146 409.57 560.781 410.517 559.973 410.875C559.166 411.234 558.22 410.869 557.862 410.06C557.504 409.25 557.868 408.304 558.676 407.945C558.868 407.86 559.075 407.813 559.285 407.808C559.496 407.803 559.705 407.839 559.901 407.915C560.097 407.991 560.276 408.105 560.428 408.25C560.58 408.395 560.702 408.568 560.787 408.761V408.761ZM558.91 413.211L562.357 411.679C562.711 411.522 562.988 411.23 563.127 410.869C563.266 410.507 563.256 410.105 563.099 409.751L562.389 408.146H565.181V420.731H559.548C559.049 418.974 558.796 417.155 558.797 415.327C558.797 414.612 558.836 413.905 558.91 413.211V413.211ZM574.037 411.988V408.279H580.686C581.03 408.279 583.111 408.676 583.111 410.232C583.111 411.524 581.515 411.988 580.202 411.988H574.037V411.988ZM598.201 415.327C598.201 415.82 598.183 416.307 598.147 416.79H596.126C595.924 416.79 595.842 416.923 595.842 417.121V418.049C595.842 420.234 594.61 420.71 593.53 420.831C592.502 420.947 591.362 420.4 591.222 419.771C590.615 416.36 589.604 415.631 588.008 414.372C589.989 413.114 592.05 411.259 592.05 408.775C592.05 406.093 590.212 404.404 588.958 403.575C587.2 402.416 585.253 402.184 584.728 402.184H563.823C566.657 399.02 570.5 396.779 574.845 395.963L577.309 398.548C577.441 398.687 577.6 398.798 577.775 398.876C577.95 398.953 578.139 398.996 578.331 399C578.522 399.004 578.713 398.971 578.892 398.902C579.07 398.832 579.233 398.728 579.372 398.596L582.129 395.959C587.906 397.034 592.798 400.631 595.617 405.565L593.729 409.828C593.403 410.566 593.736 411.429 594.471 411.756L598.106 413.37C598.168 414.015 598.201 414.667 598.201 415.327ZM577.31 393.764C577.949 393.153 578.961 393.177 579.573 393.816C580.183 394.457 580.16 395.471 579.52 396.082C578.881 396.694 577.868 396.67 577.257 396.03C576.964 395.722 576.805 395.311 576.815 394.886C576.825 394.461 577.003 394.058 577.31 393.764ZM596.041 408.838C596.126 408.646 596.248 408.473 596.4 408.328C596.553 408.182 596.732 408.069 596.928 407.993C597.124 407.917 597.333 407.881 597.543 407.886C597.753 407.892 597.96 407.938 598.152 408.023C598.96 408.382 599.325 409.329 598.966 410.138C598.881 410.33 598.759 410.504 598.607 410.649C598.455 410.794 598.276 410.908 598.08 410.984C597.884 411.059 597.675 411.096 597.464 411.091C597.254 411.085 597.047 411.039 596.855 410.954C596.048 410.595 595.684 409.648 596.041 408.838Z" fill="white"/>
<path d="M604.427 552.099L580.899 528.572C579.545 527.217 577.347 527.217 575.991 528.572L571.105 533.458L577.303 539.656C578.744 539.169 580.395 539.495 581.543 540.643C582.697 541.799 583.021 543.465 582.522 544.91L588.496 550.883C589.941 550.385 591.608 550.707 592.762 551.863C594.375 553.476 594.375 556.089 592.762 557.702C591.149 559.316 588.535 559.316 586.921 557.702C585.708 556.488 585.408 554.706 586.022 553.211L580.452 547.641L580.451 562.3C580.855 562.499 581.224 562.763 581.543 563.081C583.156 564.693 583.156 567.307 581.543 568.921C579.93 570.534 577.315 570.534 575.704 568.921C574.091 567.307 574.091 564.693 575.704 563.081C576.09 562.694 576.55 562.388 577.055 562.18V547.384C576.549 547.177 576.089 546.871 575.704 546.483C574.482 545.263 574.188 543.469 574.814 541.969L568.704 535.858L552.571 551.99C551.216 553.346 551.216 555.544 552.571 556.9L576.1 580.427C577.455 581.782 579.652 581.782 581.008 580.427L604.427 557.009C605.782 555.653 605.782 553.454 604.427 552.099" fill="#DE4C36"/>
<path d="M578.499 112.556C563.6 112.556 551.555 124.601 551.555 139.5C551.555 154.399 563.6 166.445 578.499 166.445C593.398 166.445 605.444 154.399 605.444 139.5V112.556H578.499Z" fill="#F0047F"/>
<path d="M577.033 140.965V160.608C566.579 160.011 558.164 151.694 557.411 141.282L557.391 140.965H577.033ZM596.181 140.965C595.634 151.42 588.01 159.835 578.465 160.587L578.175 160.608V140.965H596.181ZM596.205 121.794V139.823H578.175V121.794H596.205Z" fill="white"/>
<path d="M583.783 8.43112L570.567 5.66936C570.511 5.77637 570.45 5.88005 570.382 5.97985L582.414 23.5309L583.14 22.806L585.187 10.077C584.841 9.93087 584.534 9.70594 584.29 9.42016C584.046 9.13437 583.873 8.79563 583.783 8.43091V8.43112ZM578.962 -8.84547C578.467 -8.08598 577.612 -7.58331 576.639 -7.58331C576.489 -7.58331 576.343 -7.59846 576.2 -7.6212L570.173 1.80942L586.275 -5.12025C586.27 -5.18508 586.256 -5.2457 586.256 -5.31222C586.256 -5.44778 586.275 -5.57914 586.297 -5.70881L578.962 -8.84526V-8.84547ZM579.399 -10.564L587.202 -7.22799C587.45 -7.42232 587.735 -7.56594 588.039 -7.65067L589.321 -15.6244L584.436 -20.5099L578.936 -11.9051C579.206 -11.5064 579.366 -11.0438 579.399 -10.5638V-10.564ZM595.748 -9.19743L590.852 -14.0945L589.787 -7.48311C590.057 -7.34745 590.3 -7.16303 590.502 -6.93918L595.748 -9.19743ZM584.017 6.68966C584.209 6.34181 584.484 6.04718 584.818 5.83241C585.152 5.61763 585.534 5.48946 585.93 5.45949L587.336 -3.28637C587.226 -3.35962 587.128 -3.44719 587.031 -3.53728L570.835 3.4328C570.877 3.60204 570.905 3.77465 570.919 3.954L584.017 6.68966ZM597.082 -7.86285L591.417 -5.42526L605.394 0.550629L605.445 0.500109L597.082 -7.86285ZM586.958 10.1033L585.256 20.6881L595.142 10.8022L588.021 9.31522C587.748 9.67258 587.38 9.94573 586.958 10.1033ZM567.743 7.38199C567.385 7.38199 567.042 7.32053 566.721 7.2117L563.437 12.3506L562.169 11.0826L565.279 6.21582C565.202 6.12036 565.13 6.02079 565.064 5.91754L559.43 8.34356L558.094 7.00793L564.262 4.3531L553.111 2.02581L551.586 0.500109L552.069 0.0176411L564.927 2.70194C565.075 2.42142 565.264 2.16481 565.489 1.94077L559.248 -7.16231L560.508 -8.42278L567.028 1.08867C567.263 1.03429 567.502 1.00633 567.742 1.00531C568.018 1.00531 568.285 1.04404 568.54 1.10972L574.641 -8.4371C574.144 -8.95238 573.867 -9.6403 573.867 -10.356C573.867 -10.5749 573.895 -10.7871 573.943 -10.9909L566.331 -14.2452L567.667 -15.5806L574.878 -12.4964C575.244 -12.7978 575.681 -13 576.148 -13.0836C576.614 -13.1672 577.094 -13.1294 577.542 -12.9738L583.167 -21.778L578.501 -26.4443L551.557 0.500109L578.501 27.4446L581.153 24.7931L569.031 7.10897C568.625 7.28881 568.186 7.38181 567.743 7.38199ZM589.052 -2.90936L587.621 5.98153C587.871 6.18242 588.078 6.43155 588.23 6.71409C588.382 6.99663 588.475 7.30681 588.504 7.62617L596.624 9.32112L604.059 1.88625L590.639 -3.85135C590.255 -3.34014 589.684 -3.00146 589.052 -2.90915V-2.90936Z" fill="#25C7B7"/>
<path d="M700.801 254.222H750.199V301.778H700.801V254.222Z" fill="#2E001E"/>
<path d="M698.555 252V304H752.444V252H698.555ZM700.8 254.222H750.198V301.778H700.8V254.222Z" fill="#FF2BC2"/>
<path d="M737.691 273.845C737.355 273.689 736.928 273.622 736.389 273.622C733.56 273.622 731.674 275.778 731.674 279.356C731.674 283.445 733.605 285.089 736.12 285.089C736.658 285.089 737.242 285.022 737.669 284.845V273.845H737.691ZM727.632 279.533C727.632 274.356 731 270.311 736.524 270.311C736.995 270.311 737.242 270.311 737.691 270.356V264.578C737.691 264.445 737.804 264.356 737.916 264.356H741.531C741.711 264.356 741.755 264.422 741.755 264.533V284.845C741.755 285.445 741.755 286.2 741.868 287.022C741.868 287.178 741.868 287.2 741.733 287.267C739.847 288.156 737.871 288.556 735.985 288.556C731.112 288.556 727.632 285.578 727.632 279.533ZM719.975 275.933L726.262 288C726.375 288.178 726.307 288.356 726.128 288.356H722.221C721.974 288.356 721.862 288.289 721.749 288.067C720.312 285.133 718.853 282.089 717.348 278.933H717.303C715.956 281.911 714.474 285.156 713.037 288.089C712.925 288.267 712.813 288.333 712.633 288.333H708.906C708.681 288.333 708.659 288.156 708.771 288.022L714.923 276.311L708.973 264.667C708.838 264.489 708.973 264.333 709.13 264.333H712.992C713.217 264.333 713.329 264.378 713.396 264.578C714.811 267.533 716.248 270.445 717.595 273.422H717.64C718.943 270.489 720.38 267.533 721.749 264.622C721.862 264.445 721.929 264.333 722.153 264.333H725.768C725.948 264.333 726.015 264.467 725.903 264.667L719.975 275.933Z" fill="#FF2BC2"/>
<path d="M725.305 388.696C711.625 388.696 712.479 394.628 712.479 394.628L712.494 400.775H725.549V402.62H707.309C707.309 402.62 698.555 401.627 698.555 415.431C698.555 429.234 706.195 428.745 706.195 428.745H710.755V422.339C710.755 422.339 710.51 414.699 718.274 414.699H731.222C731.222 414.699 738.497 414.816 738.497 407.668V395.849C738.497 395.849 739.602 388.696 725.305 388.696ZM718.106 392.829C718.415 392.829 718.721 392.889 719.006 393.007C719.291 393.125 719.55 393.298 719.768 393.516C719.986 393.735 720.159 393.994 720.277 394.279C720.395 394.564 720.455 394.869 720.455 395.178C720.455 395.486 720.395 395.792 720.277 396.077C720.159 396.362 719.986 396.621 719.768 396.839C719.55 397.057 719.291 397.23 719.006 397.348C718.721 397.466 718.415 397.527 718.106 397.526C717.798 397.527 717.492 397.466 717.207 397.348C716.922 397.23 716.663 397.057 716.445 396.839C716.227 396.621 716.054 396.362 715.936 396.077C715.818 395.792 715.758 395.486 715.758 395.178C715.758 394.869 715.818 394.564 715.936 394.279C716.054 393.994 716.227 393.735 716.445 393.516C716.663 393.298 716.922 393.125 717.207 393.007C717.492 392.889 717.798 392.829 718.106 392.829Z" fill="url(#paint10_linear_101_659)"/>
<path d="M725.693 442.304C739.373 442.304 738.519 436.372 738.519 436.372L738.504 430.225H725.448V428.38H743.689C743.689 428.38 752.443 429.373 752.443 415.569C752.443 401.766 744.802 402.255 744.802 402.255H740.242V408.66C740.242 408.66 740.488 416.301 732.723 416.301H719.775C719.775 416.301 712.5 416.184 712.5 423.332V435.152C712.5 435.152 711.396 442.304 725.692 442.304H725.693ZM732.891 438.171C732.583 438.172 732.277 438.111 731.992 437.993C731.707 437.875 731.448 437.702 731.23 437.484C731.012 437.266 730.839 437.007 730.721 436.722C730.603 436.437 730.542 436.131 730.542 435.823C730.542 435.514 730.603 435.209 730.721 434.924C730.839 434.639 731.012 434.38 731.23 434.161C731.448 433.943 731.707 433.77 731.992 433.652C732.277 433.534 732.583 433.474 732.891 433.474C733.2 433.474 733.505 433.534 733.79 433.652C734.075 433.77 734.334 433.943 734.552 434.161C734.771 434.379 734.943 434.638 735.061 434.924C735.179 435.209 735.24 435.514 735.24 435.823C735.24 436.131 735.179 436.437 735.061 436.722C734.943 437.007 734.771 437.266 734.552 437.484C734.334 437.702 734.075 437.875 733.79 437.993C733.505 438.111 733.2 438.171 732.891 438.171V438.171Z" fill="url(#paint11_linear_101_659)"/>
<path d="M698.555 574.496C698.555 578.334 701.666 581.445 705.503 581.445H745.495C749.333 581.445 752.444 578.334 752.444 574.496V534.504C752.444 530.666 749.333 527.556 745.495 527.556H705.503C701.665 527.556 698.555 530.667 698.555 534.504V574.496V574.496Z" fill="#563D7C"/>
<path d="M720.901 551.393V543.761H727.619C728.258 543.761 728.875 543.814 729.469 543.921C730.063 544.028 730.589 544.218 731.046 544.492C731.503 544.767 731.868 545.147 732.143 545.635C732.417 546.122 732.554 546.747 732.554 547.508C732.554 548.879 732.143 549.869 731.32 550.479C730.498 551.088 729.447 551.393 728.167 551.393H720.901ZM713.727 538.186V570.814H729.538C731 570.814 732.425 570.631 733.811 570.266C735.197 569.9 736.431 569.337 737.512 568.575C738.594 567.813 739.454 566.831 740.094 565.627C740.734 564.424 741.054 563 741.054 561.355C741.054 559.313 740.559 557.569 739.569 556.122C738.578 554.675 737.078 553.662 735.067 553.083C736.53 552.383 737.634 551.484 738.381 550.387C739.127 549.291 739.5 547.92 739.5 546.274C739.5 544.751 739.249 543.472 738.746 542.436C738.243 541.4 737.535 540.57 736.621 539.945C735.707 539.321 734.61 538.871 733.331 538.597C732.051 538.323 730.635 538.186 729.081 538.186H713.727ZM720.901 565.239V556.282H728.715C730.269 556.282 731.518 556.64 732.463 557.356C733.407 558.072 733.879 559.268 733.879 560.943C733.879 561.797 733.735 562.497 733.445 563.045C733.156 563.594 732.767 564.028 732.28 564.348C731.792 564.668 731.229 564.896 730.589 565.033C729.949 565.17 729.279 565.239 728.578 565.239H720.901Z" fill="white"/>
<path d="M723.293 113.131C724.63 112.366 726.37 112.362 727.705 113.131C734.421 116.926 741.14 120.715 747.855 124.512C749.119 125.224 749.963 126.63 749.951 128.085V150.918C749.96 152.434 749.032 153.873 747.699 154.568C741.005 158.343 734.314 162.122 727.62 165.896C726.257 166.676 724.481 166.615 723.16 165.772C721.153 164.608 719.143 163.451 717.135 162.288C716.725 162.044 716.263 161.849 715.973 161.452C716.229 161.106 716.687 161.063 717.059 160.913C717.897 160.646 718.666 160.219 719.436 159.804C719.63 159.671 719.868 159.722 720.055 159.841C721.771 160.825 723.472 161.837 725.194 162.812C725.561 163.024 725.933 162.743 726.247 162.568C732.816 158.855 739.394 155.156 745.962 151.442C746.205 151.325 746.34 151.067 746.32 150.8C746.325 143.268 746.321 135.734 746.322 128.202C746.35 127.9 746.175 127.621 745.902 127.498C739.23 123.741 732.563 119.978 725.893 116.22C725.777 116.141 725.64 116.098 725.5 116.098C725.36 116.098 725.223 116.14 725.107 116.219C718.437 119.978 711.77 123.744 705.1 127.501C704.828 127.625 704.645 127.898 704.677 128.202C704.678 135.734 704.677 143.268 704.677 150.801C704.666 150.931 704.694 151.062 704.759 151.175C704.824 151.288 704.922 151.379 705.04 151.435C706.82 152.444 708.602 153.447 710.383 154.452C711.387 154.993 712.619 155.313 713.724 154.9C714.7 154.55 715.383 153.554 715.365 152.518C715.374 145.03 715.36 137.541 715.372 130.054C715.347 129.721 715.663 129.447 715.986 129.478C716.841 129.472 717.698 129.466 718.553 129.48C718.91 129.472 719.155 129.83 719.111 130.165C719.108 137.701 719.12 145.237 719.106 152.772C719.108 154.781 718.283 156.966 716.425 157.948C714.137 159.134 711.308 158.883 709.047 157.746C707.09 156.769 705.222 155.616 703.299 154.569C701.963 153.878 701.04 152.433 701.049 150.918V128.085C701.035 126.599 701.913 125.168 703.216 124.467C709.909 120.69 716.601 116.91 723.293 113.131Z" fill="#8CC84B"/>
<path d="M729.133 128.947C732.052 128.76 735.177 128.836 737.804 130.274C739.838 131.376 740.965 133.689 741.001 135.949C740.944 136.254 740.626 136.422 740.335 136.401C739.488 136.4 738.641 136.412 737.794 136.395C737.434 136.409 737.226 136.078 737.18 135.76C736.937 134.679 736.347 133.608 735.33 133.087C733.768 132.304 731.957 132.344 730.253 132.36C729.01 132.426 727.673 132.534 726.619 133.265C725.81 133.819 725.565 134.937 725.853 135.838C726.125 136.484 726.872 136.693 727.483 136.885C731.001 137.805 734.729 137.714 738.179 138.925C739.608 139.418 741.006 140.378 741.495 141.874C742.134 143.879 741.854 146.275 740.428 147.885C739.271 149.209 737.586 149.93 735.906 150.321C733.67 150.82 731.351 150.833 729.081 150.611C726.946 150.368 724.725 149.807 723.077 148.353C721.668 147.129 720.979 145.223 721.048 143.383C721.064 143.072 721.373 142.855 721.671 142.881C722.524 142.874 723.377 142.872 724.23 142.882C724.57 142.858 724.823 143.152 724.84 143.473C724.998 144.503 725.385 145.584 726.283 146.195C728.017 147.313 730.192 147.237 732.177 147.268C733.821 147.195 735.667 147.173 737.009 146.086C737.717 145.466 737.927 144.429 737.735 143.537C737.528 142.784 736.74 142.432 736.063 142.203C732.59 141.104 728.821 141.503 725.382 140.261C723.985 139.767 722.635 138.834 722.099 137.4C721.35 135.37 721.693 132.858 723.269 131.303C724.806 129.756 727.024 129.161 729.133 128.947V128.947Z" fill="#8CC84B"/>
<path d="M716.519 27.4444C721.476 27.4444 725.5 23.4207 725.5 18.4629V9.48145H716.519C711.561 9.48145 707.537 13.5051 707.537 18.4629C707.537 23.4207 711.561 27.4444 716.519 27.4444Z" fill="#0ACF83"/>
<path d="M707.537 0.50002C707.537 -4.45775 711.561 -8.48145 716.519 -8.48145H725.5V9.48149H716.519C711.561 9.48149 707.537 5.45779 707.537 0.50002Z" fill="#A259FF"/>
<path d="M743.463 0.50002C743.463 5.45779 739.439 9.48149 734.481 9.48149C729.524 9.48149 725.5 5.45779 725.5 0.50002C725.5 -4.45775 729.524 -8.48145 734.481 -8.48145C739.439 -8.48145 743.463 -4.45775 743.463 0.50002Z" fill="#1ABCFE"/>
</g>
<defs>
<linearGradient id="paint0_linear_101_659" x1="901.789" y1="550.973" x2="883.085" y2="577.53" gradientUnits="userSpaceOnUse">
<stop offset="0.18" stop-color="#0052CC"/>
<stop offset="1" stop-color="#2684FF"/>
</linearGradient>
<linearGradient id="paint1_linear_101_659" x1="310.938" y1="251.611" x2="258.681" y2="304.957" gradientUnits="userSpaceOnUse">
<stop stop-color="#FFAA2A"/>
<stop offset="1" stop-color="#FFC06C"/>
</linearGradient>
<linearGradient id="paint2_linear_101_659" x1="284.034" y1="255.904" x2="284.034" y2="299.825" gradientUnits="userSpaceOnUse">
<stop stop-color="#251200"/>
<stop offset="1"/>
</linearGradient>
<linearGradient id="paint3_linear_101_659" x1="256.833" y1="398.151" x2="284.155" y2="435.001" gradientUnits="userSpaceOnUse">
<stop stop-color="#41D1FF"/>
<stop offset="1" stop-color="#BD34FE"/>
</linearGradient>
<linearGradient id="paint4_linear_101_659" x1="286.348" y1="389.564" x2="291.995" y2="428.032" gradientUnits="userSpaceOnUse">
<stop stop-color="#FFEA83"/>
<stop offset="0.083" stop-color="#FFDD35"/>
<stop offset="1" stop-color="#FFA800"/>
</linearGradient>
<radialGradient id="paint5_radial_101_659" cx="0" cy="0" r="1" gradientUnits="userSpaceOnUse" gradientTransform="translate(275.482 541.242) scale(37.9297 36.3482)">
<stop stop-color="#4B2B36" stop-opacity="0.98"/>
<stop offset="1" stop-color="#250012"/>
</radialGradient>
<linearGradient id="paint6_linear_101_659" x1="417.295" y1="249.039" x2="437.739" y2="292.239" gradientUnits="userSpaceOnUse">
<stop stop-color="#A0CBFF"/>
<stop offset="0.394" stop-color="#A0CBFE"/>
<stop offset="0.583" stop-color="#8EC2FC"/>
<stop offset="0.784" stop-color="#83BCFB"/>
<stop offset="1" stop-color="#7FBAFB"/>
</linearGradient>
<linearGradient id="paint7_linear_101_659" x1="424.552" y1="256.57" x2="436.108" y2="294.97" gradientUnits="userSpaceOnUse">
<stop stop-color="#090058"/>
<stop offset="1" stop-color="#070033"/>
</linearGradient>
<linearGradient id="paint8_linear_101_659" x1="410.936" y1="251.338" x2="431.381" y2="294.537" gradientUnits="userSpaceOnUse">
<stop stop-color="#A0CBFF"/>
<stop offset="0.394" stop-color="#A0CBFE"/>
<stop offset="0.583" stop-color="#8EC2FC"/>
<stop offset="0.784" stop-color="#83BCFB"/>
<stop offset="1" stop-color="#7FBAFB"/>
</linearGradient>
<linearGradient id="paint9_linear_101_659" x1="422.582" y1="245.697" x2="443.107" y2="289.068" gradientUnits="userSpaceOnUse">
<stop stop-color="#A0CBFF"/>
<stop offset="0.394" stop-color="#A0CBFE"/>
<stop offset="0.583" stop-color="#8EC2FC"/>
<stop offset="0.784" stop-color="#83BCFB"/>
<stop offset="1" stop-color="#7FBAFB"/>
</linearGradient>
<linearGradient id="paint10_linear_101_659" x1="703.733" y1="393.518" x2="730.439" y2="419.957" gradientUnits="userSpaceOnUse">
<stop stop-color="#387EB8"/>
<stop offset="1" stop-color="#366994"/>
</linearGradient>
<linearGradient id="paint11_linear_101_659" x1="720.124" y1="410.495" x2="748.803" y2="437.606" gradientUnits="userSpaceOnUse">
<stop stop-color="#FFE052"/>
<stop offset="1" stop-color="#FFC331"/>
</linearGradient>
<clipPath id="clip0_101_659">
<rect width="100" height="20.3046" fill="white" transform="translate(383 130)"/>
</clipPath>
</defs>
</svg>
